<svg width="488" height="839" viewBox="0 0 488 839" fill="none" xmlns="http://www.w3.org/2000/svg">
<mask id="path-1-inside-1" fill="white">
<path fill-rule="evenodd" clip-rule="evenodd" d="M371.728 0.492278C371.043 0.958659 370.104 2.59546 369.638 4.12961C368.355 8.3672 366.866 9.70833 363.443 9.70833C361.081 9.70833 359.737 10.6567 357.91 13.6145C355.13 18.1099 351.618 20.8658 348.667 20.8658C347.538 20.8658 343.05 24.493 338.696 28.927C334.34 33.361 328.472 38.4488 325.655 40.234C322.838 42.018 317.74 45.671 314.327 48.351C310.914 51.0299 307.583 53.2223 306.925 53.2223C305.309 53.2223 304.388 49.363 304.37 42.5168C304.359 38.441 303.777 36.3099 302.314 34.9855C299.659 32.5833 298.442 32.6569 295.986 35.3704C294.876 36.5978 292.908 37.6019 291.613 37.6019C290.318 37.6019 287.385 38.6061 285.096 39.8334C282.805 41.0607 280.428 42.0649 279.813 42.0649C278.082 42.0649 278.486 39.6794 280.615 37.3274C282.491 35.2533 282.368 35.222 275.42 36.0086L268.303 36.8142L265.209 33.024L262.115 29.2338L260.838 32.5811C259.229 36.8019 260.188 41.7837 263.23 45.0227C266.432 48.4302 265.343 50.3872 259.054 52.5306C252.306 54.8301 248.967 54.7543 244.158 52.1936C240.376 50.1797 240.248 50.1842 237.177 52.4558C233.219 55.3813 231.787 54.1428 230.993 47.1081C230.559 43.2554 229.72 41.4646 227.744 40.1693C225.31 38.5749 224.899 38.586 222.998 40.3076C221.023 42.095 220.791 42.0169 218.488 38.7824C216.513 36.0086 215.675 35.5791 213.995 36.4784C212.859 37.0864 211.597 39.0937 211.192 40.9402C210.631 43.4964 209.838 44.2964 207.863 44.2964C205.988 44.2964 204.95 45.2202 204.105 47.6436C203.464 49.4846 202.226 50.9908 201.357 50.9908C200.487 50.9908 198.38 52.0887 196.674 53.431L193.573 55.8711L191.149 52.8329C189.817 51.1616 187.026 48.9334 184.946 47.8824C182.361 46.5759 180.883 44.8632 180.28 42.4744C179.793 40.5519 178.516 38.6686 177.441 38.2892C176.366 37.911 174.937 37.3341 174.264 37.0072C173.591 36.6814 171.674 38.4811 170.003 41.0061C167.351 45.0127 167.117 46.0336 168.163 49.0327C168.821 50.9228 169.232 52.5362 169.077 52.6198C168.92 52.7024 167.411 53.364 165.724 54.0882C163.567 55.0142 162.656 56.2203 162.656 58.1461C162.656 59.6535 162.162 62.1851 161.559 63.7717C160.587 66.3268 159.922 66.6213 155.728 66.3546C151.213 66.0668 150.936 66.233 149.706 69.9585C148.515 73.5702 147.982 73.9261 142.629 74.7026C139.445 75.1634 135.847 76.0728 134.632 76.7221C131.467 78.4169 130.06 82.8621 131.285 87.2994C131.849 89.339 132.024 91.2915 131.676 91.6407C131.328 91.9889 128.349 92.2734 125.055 92.2734C119.7 92.2734 118.655 92.6862 115.162 96.1785C113.014 98.3263 110.772 100.084 110.179 100.084C107.666 100.084 109.406 105.324 113.212 109.22C115.473 111.537 117.104 113.648 116.838 113.911C116.571 114.175 111.332 114.884 105.195 115.485C95.3911 116.446 93.5635 116.341 90.1326 114.626C84.2281 111.676 78.5445 111.109 75.5912 113.177C74.2121 114.143 71.5221 115.251 69.6142 115.638C66.8761 116.193 66.0695 116.987 65.7883 119.405C65.5395 121.54 64.0522 123.387 60.879 125.501C58.3753 127.17 55.6574 129.029 54.8395 129.633C53.7506 130.437 52.5244 129.738 50.2505 127.014L47.1488 123.298L40.4677 125.215C36.7936 126.27 31.0263 128.806 27.6512 130.852C23.8109 133.181 19.2955 134.858 15.5834 135.334C12.321 135.752 9.00836 136.738 8.22288 137.523C7.43629 138.309 5.94009 143.387 4.89687 148.806C3.85254 154.226 2.19901 160.966 1.22162 163.784C-1.20846 170.787 -0.0302377 176.389 4.91025 181.33C11.3492 187.769 12.2395 191.765 7.56571 193.249C6.44998 193.603 4.98836 194.555 4.31557 195.365C2.57167 197.467 6.67089 202.358 10.9665 203.301C12.8688 203.719 15.146 205.336 16.1926 207.013C17.2124 208.648 19.1281 210.989 20.448 212.216C23.0243 214.61 28.767 226.888 28.767 230.002C28.767 232.792 26.6727 236.204 24.959 236.204C21.7981 236.204 20.7091 239.182 22.5601 242.764C25.374 248.204 24.7804 250.372 19.5621 253.715C16.9535 255.386 14.6228 256.887 14.3818 257.051C14.1419 257.215 14.5792 258.115 15.3558 259.05C16.1881 260.053 18.5903 260.751 21.2123 260.751C24.6242 260.751 26.1662 261.399 27.851 263.54C30.3558 266.724 32.3451 267.066 34.3457 264.656C36.5303 262.023 38.4851 262.681 39.815 266.496C41.9316 272.566 41.309 276.652 37.5768 281.18C34.6614 284.717 34.2274 285.989 34.8332 289.219C35.2293 291.33 37.2444 295.272 39.3118 297.98L43.0696 302.905L40.4398 312.231C38.5408 318.962 37.0056 322.2 34.9236 323.862L32.0394 326.166L34.3691 328.274C36.0494 329.795 36.605 331.45 36.3596 334.202C35.9992 338.247 36.6519 338.914 42.7137 340.687C44.7198 341.274 46.7449 343.002 47.768 345.002C48.7063 346.836 50.8921 350.728 52.6237 353.65C56.3101 359.87 55.8783 362.283 51.0773 362.283C48.0994 362.283 47.3842 362.916 45.5655 367.159C44.0001 370.811 42.5586 372.355 39.8273 373.307L36.181 374.579L39.3765 377.915C41.1349 379.749 43.2214 381.251 44.0124 381.251C44.8035 381.251 46.2472 382.465 47.2191 383.948C49.3568 387.211 48.5122 393.35 45.377 397.336C41.425 402.361 42.5564 406.634 50.8028 417.834C56.3536 425.373 59.1753 428.26 61.5317 428.811C66.1688 429.895 71.165 438.161 71.165 444.749C71.165 449.466 71.5912 450.189 77.7769 455.967C82.7509 460.613 84.574 463.164 85.1419 466.268C85.5569 468.537 86.5388 471.273 87.3254 472.348C88.5784 474.062 89.2835 474.137 93.0692 472.954C95.4424 472.213 99.1422 471.708 101.29 471.832C103.438 471.955 106.533 471.665 108.168 471.187C110.909 470.384 111.316 470.712 113.377 475.37C115.537 480.253 115.791 480.434 120.982 480.766C126.902 481.146 126.294 480.287 129.766 493.165C131.354 499.05 131.94 499.843 136.206 501.861C138.787 503.081 142.197 504.8 143.786 505.679C145.845 506.819 147.654 506.996 150.096 506.297C153.076 505.442 153.919 505.732 156.611 508.541C158.31 510.316 160.623 512.06 161.748 512.417C165.372 513.567 167.545 519.568 168.186 530.203L168.792 540.245H173.995C176.857 540.245 179.439 540.496 179.733 540.802C182.117 543.289 187.202 554.983 187.202 557.982C187.202 560.038 187.955 563.856 188.875 566.464C189.796 569.073 190.549 572.573 190.549 574.242C190.549 577.534 192.976 580.254 197.01 581.485C198.646 581.983 199.798 583.422 200.209 585.479C200.563 587.247 202.024 589.462 203.457 590.401C204.889 591.339 207.28 593.421 208.768 595.026C210.805 597.223 212.777 598.034 216.732 598.301C219.623 598.495 222.823 599.348 223.842 600.193C226.494 602.396 237.894 601.97 240.546 599.57C243.32 597.059 244.917 597.223 245.834 600.112C246.379 601.83 245.945 603.027 244.319 604.296C241.566 606.443 241.227 608.101 242.39 613.717C243.177 617.521 242.942 618.329 240.344 620.737C238.501 622.446 237.41 624.638 237.41 626.631C237.41 628.786 236.514 630.392 234.621 631.633C232.953 632.726 231.831 634.517 231.831 636.088C231.831 640.213 229.206 641.615 222.885 640.867L217.327 640.208V643.519C217.327 645.339 216.7 647.841 215.932 649.079C214.213 651.852 216.124 653.442 221.232 653.489C223.833 653.514 225.16 654.416 227.183 657.539C229.607 661.278 230.082 661.51 234.028 660.88C237.764 660.283 238.35 660.501 238.94 662.705C239.309 664.081 239.621 666.212 239.635 667.439C239.664 670.146 247.561 675.007 250.253 673.975C252.57 673.086 260.854 675.761 260.802 677.381C260.779 678.05 260.044 679.852 259.167 681.386C258.29 682.92 257.555 685.228 257.532 686.514C257.511 687.801 256.749 690.346 255.84 692.169C254.621 694.611 254.459 696.435 255.221 699.095C256.125 702.247 255.901 703.016 253.455 705.156C251.915 706.504 249.557 707.879 248.216 708.214C244.706 709.09 244.795 714.989 248.342 716.532C250.073 717.285 250.732 718.317 250.372 719.708C249.586 722.73 250.754 724.938 253.74 726.074C255.241 726.644 256.378 727.994 256.378 729.206C256.378 730.396 257.362 731.591 258.609 731.918C260.1 732.308 260.841 733.44 260.841 735.329C260.841 738.62 262.721 740.203 264.508 738.415C265.191 737.732 267.156 737.173 268.874 737.173C271.667 737.173 271.998 737.566 271.998 740.865C271.998 742.896 271.26 745.531 270.36 746.723C269.459 747.914 268.705 750.52 268.686 752.515C268.659 755.379 269.108 756.141 270.826 756.141C272.024 756.141 273.48 756.993 274.062 758.034C275.052 759.802 275.434 759.787 279.834 757.803L284.546 755.678L286.615 758.235C288.275 760.285 289.354 760.645 292.057 760.052C295.779 759.234 295.733 759.133 295.454 767.394C295.285 772.463 295.314 772.508 298.593 772.026C301.249 771.636 302.056 772.024 302.678 773.986C303.339 776.067 304.008 776.328 307.165 775.736C309.413 775.314 311.177 775.529 311.641 776.28C312.063 776.963 313.573 777.229 314.995 776.872C317.67 776.2 318.987 777.104 323.259 782.536C325.529 785.419 325.65 785.446 327.216 783.379C328.103 782.205 328.846 780.564 328.865 779.73C328.889 778.67 329.747 778.427 331.712 778.92C334.169 779.536 334.61 779.2 335.199 776.251C335.878 772.856 337.892 772.108 344.8 772.688C346.361 772.818 346.752 771.958 346.752 768.401C346.752 764.759 347.141 763.951 348.891 763.951C350.067 763.951 351.214 764.506 351.44 765.182C351.665 765.859 353.841 766.569 356.274 766.76C362.577 767.252 366.957 769.197 367.64 771.806C368.053 773.387 368.838 773.862 370.28 773.404C371.858 772.903 372.723 773.688 374.024 776.801C375.936 781.376 379.81 785.058 382.77 785.114C383.863 785.134 385.047 785.903 385.399 786.824C385.753 787.744 386.993 788.498 388.154 788.498C389.757 788.498 390.266 787.691 390.266 785.15C390.266 783.051 390.84 781.803 391.804 781.803C392.649 781.803 394.068 780.709 394.956 779.372C396.462 777.104 396.739 777.058 399.069 778.69C400.444 779.653 402.481 780.202 403.597 779.91C406.016 779.277 409.674 783.81 408.215 785.632C407.69 786.287 406.911 788.455 406.485 790.45C405.816 793.578 406.012 794.076 407.91 794.076C409.12 794.076 410.418 794.875 410.791 795.851C411.611 797.987 407.503 804.118 405.253 804.118C403.17 804.118 403.217 806.874 405.354 810.136C406.875 812.458 406.875 812.877 405.354 814.138C403.29 815.851 403.2 817.883 405.05 821.015C406.169 822.91 406.165 823.478 405.03 823.889C401.882 825.027 400.379 827.591 401.354 830.155C401.92 831.643 401.878 833.471 401.252 834.59C400.666 835.635 400.482 836.969 400.841 837.55C401.777 839.065 404.58 837.733 404.995 835.575C405.19 834.563 407.575 832.976 410.349 832.012C413.325 830.977 415.505 829.479 415.73 828.314C415.937 827.237 417.373 825.089 418.921 823.542C421.106 821.356 422.439 820.881 424.882 821.418C427.566 822.008 428.082 821.731 428.393 819.529C428.729 817.159 429.237 816.975 434.617 817.261C440.863 817.594 441.922 816.716 438.128 814.347C436.102 813.082 435.883 812.207 436.525 807.933C437.086 804.187 436.843 802.558 435.524 801.239C433.21 798.925 433.318 796.634 435.804 795.302C436.917 794.707 439.262 791.953 441.013 789.182C443.84 784.711 444.709 784.107 448.751 783.81C453.02 783.498 453.328 783.244 453.662 779.749C453.982 776.417 454.307 776.094 456.731 776.702C459.172 777.314 459.442 777.032 459.442 773.871C459.442 770.4 459.492 770.369 463.905 771.074C467.949 771.721 468.368 771.563 468.368 769.387C468.368 768.067 467.489 766.312 466.415 765.488C464.58 764.077 464.6 763.949 466.751 763.34C468.269 762.91 469.531 761.026 470.5 757.742C472.105 752.308 472.091 752.32 475.019 753.886C476.499 754.678 477.433 754.529 478.418 753.34C479.526 752.005 479.136 750.972 476.304 747.746C474.394 745.57 472.831 742.797 472.831 741.583C472.831 740.368 472.25 738.444 471.539 737.306C470.828 736.168 470.583 734.363 470.993 733.294C471.587 731.746 472.531 731.499 475.632 732.081C479.048 732.721 479.525 732.532 479.525 730.529C479.525 728.81 480.247 728.247 482.454 728.247C485.056 728.247 485.314 727.905 484.764 725.179C484.423 723.491 483.851 721.354 483.493 720.429C483.08 719.362 483.764 718.344 485.367 717.64C487.393 716.751 487.913 715.593 487.996 711.781C488.055 709.051 487.463 706.5 486.601 705.786C485.778 705.102 485.104 703.601 485.104 702.449C485.104 699.404 481.857 699.852 478.042 703.422L474.763 706.49L475.51 701.586C476.149 697.387 475.828 696.063 473.276 692.381C471.471 689.775 469.401 688.081 468.025 688.081C466.776 688.081 464.837 687.249 463.714 686.234C461.798 684.501 461.673 684.531 461.673 686.726C461.673 691.776 456.964 690.513 454.826 684.89C454.016 682.759 454.268 681.655 455.984 679.823C457.631 678.066 457.903 676.991 457.077 675.52C455.614 672.918 456.538 671.669 460.58 670.782C464.686 669.879 466.337 667.051 465.425 662.487C464.752 659.12 464.838 659.032 468.503 659.327C472.117 659.617 472.287 659.456 472.619 655.445C472.951 651.437 472.82 651.261 469.516 651.261C465.24 651.261 464.054 648.734 466.438 644.701C467.759 642.463 467.896 641.214 466.996 639.605C466.338 638.432 465.751 635.931 465.69 634.046C465.6 631.276 465.044 630.546 462.789 630.235C458.727 629.674 455.737 626.064 456.572 622.732C457.047 620.844 456.482 618.945 454.751 616.603C452.73 613.87 451.695 613.346 449.427 613.909C447.878 614.293 445.574 615.574 444.308 616.756C439.819 620.943 434.74 617.813 438.78 613.349C439.837 612.181 441.028 608.559 441.425 605.301C442.091 599.849 442.396 599.351 445.275 599.02L448.404 598.662L447.631 590.652C447.205 586.247 446.416 582.472 445.877 582.265C443.789 581.458 441.492 578.392 442.356 577.565C442.855 577.086 444.515 576.527 446.044 576.322C448.268 576.023 449.244 574.777 450.926 570.091C452.659 565.258 453.491 564.233 455.676 564.233C457.134 564.233 458.383 563.857 458.453 563.396C458.524 562.935 458.749 561.121 458.954 559.363C459.16 557.606 460.107 555.306 461.059 554.254C462.032 553.179 462.789 550.333 462.789 547.753C462.789 542.516 464.05 541.332 469.159 541.773C473.794 542.173 480.672 539.76 483.062 536.897C484.678 534.963 484.715 534.432 483.341 532.904C482.47 531.936 481.757 530.609 481.757 529.957C481.757 529.305 480.535 528.465 479.042 528.09C474.771 527.017 474.218 523.15 477.913 520.204L481.005 517.739L477.311 514.208C472.952 510.044 472.535 509.989 467.751 512.946C463.691 515.455 462.142 514.524 463.221 510.225C463.716 508.252 463.233 507.383 461.106 506.413C458.699 505.316 458.501 504.82 459.554 502.511C460.412 500.628 460.415 498.624 459.567 495.553C458.129 490.341 460.028 486.586 464.697 485.415C470.175 484.04 474.008 477.935 475.804 467.721C476.129 465.88 477.388 462.254 478.603 459.662C480.794 454.987 480.619 452.693 478.065 452.622C475.686 452.555 471.715 448.454 471.715 446.065C471.715 444.354 471.009 443.733 469.065 443.733C467.608 443.733 464.911 443.431 463.074 443.064C459.971 442.444 459.681 442.669 459.015 446.217C458.621 448.319 457.597 450.998 456.74 452.171C455.21 454.262 455.136 454.263 452.848 452.192C451.29 450.782 450.516 448.723 450.516 445.992C450.516 443.022 449.753 441.24 447.727 439.478C446.193 438.144 444.937 436.477 444.937 435.774C444.937 434.052 441.495 431.539 439.08 431.495C437.931 431.474 437.127 432.285 437.127 433.468C437.127 436.595 434.915 438.242 432.47 436.934C429.33 435.254 427.907 436.791 428.697 441.005C429.391 444.703 429.377 444.718 424.613 445.062C420.378 445.367 419.873 445.692 420.182 447.917C420.374 449.297 419.997 450.427 419.346 450.427C418.693 450.427 418.16 451.682 418.16 453.216C418.16 454.919 417.525 456.006 416.53 456.006C414.381 456.006 410.43 451.694 409.619 448.462C409.132 446.524 408.44 446.066 406.793 446.589C405.453 447.014 403.758 446.509 402.397 445.278C400.58 443.633 399.797 443.515 398.03 444.619C395.219 446.375 390.329 446.345 389.712 444.569C389.445 443.803 389.617 441.418 390.094 439.27C390.841 435.912 391.369 435.407 393.854 435.669C398.699 436.179 404.232 432.08 405.811 426.811C406.574 424.263 407.844 421.533 408.631 420.745C409.419 419.957 409.818 418.025 409.517 416.452C409.216 414.877 409.582 412.115 410.328 410.311C411.431 407.65 411.387 406.429 410.097 403.844C409.224 402.091 408.837 399.931 409.238 399.044C409.64 398.156 411.013 395.302 412.29 392.701C414.249 388.713 414.423 387.358 413.404 384.037C412.331 380.541 412.474 379.843 414.685 377.782C416.608 375.993 417.013 374.724 416.463 372.22C415.881 369.57 416.123 368.971 417.793 368.939C422.123 368.854 425.406 365.96 425.557 362.093C425.636 360.05 426.071 356.538 426.524 354.29C427.285 350.504 427.093 350.072 423.925 348.433C422.042 347.46 419.473 346.663 418.215 346.663C415.765 346.663 415.311 343.451 416.952 337.737C418.266 333.165 417.205 330.96 414.07 331.747C411.102 332.492 408.217 329.838 408.154 326.301C408.129 324.948 407.222 324.348 405.203 324.348C402.499 324.348 402.342 324.083 403.05 320.722C403.471 318.728 404.078 314.723 404.399 311.821C404.947 306.869 404.733 306.31 400.894 302.689C397.426 299.419 396.986 298.492 398.001 296.595C398.856 294.997 398.853 294.145 397.989 293.612C397.324 293.2 397.067 291.72 397.417 290.323C397.807 288.768 397.41 287.25 396.392 286.404C395.478 285.645 394.729 284.177 394.729 283.143C394.729 282.107 393.992 280.286 393.091 279.095C390.3 275.405 391.163 272.897 397.518 266.235C402.529 260.982 403.655 259.094 403.655 255.95C403.655 253.831 404.42 251.462 405.357 250.686C406.875 249.426 406.853 249.045 405.15 247.164C403.332 245.155 403.403 244.906 406.666 241.925C408.551 240.204 410.43 237.261 410.843 235.384C411.254 233.508 412.522 231.131 413.658 230.102C414.795 229.075 416.32 226.795 417.047 225.039C417.824 223.164 419.709 221.378 421.612 220.714C423.395 220.093 424.854 218.818 424.854 217.882C424.854 215.12 435.082 205.621 438.232 205.458C439.772 205.377 442.4 205.234 444.072 205.138C446.215 205.015 447.615 203.991 448.817 201.667C450.027 199.325 451.631 198.161 454.349 197.651C458.253 196.919 462.787 191.8 464.426 186.275C465.32 183.262 466.894 183.095 469.778 185.705C471.833 187.565 472.053 187.495 475.165 184.013C477.384 181.53 478.41 179.197 478.41 176.63C478.41 174.567 479.158 171.087 480.073 168.898C481.843 164.664 481.693 164.373 477.206 163.304C475.624 162.927 473.751 161.351 473.046 159.803C472.34 158.254 471.017 156.987 470.105 156.987C467.636 156.987 466.138 153.337 466.128 147.297C466.123 144.342 465.594 138.66 464.953 134.672C463.946 128.42 463.145 126.764 459.15 122.677C456.6 120.069 453.65 117.935 452.595 117.935C449.965 117.935 446.902 114.661 447.668 112.667C449.738 107.269 449.606 105.844 446.997 105.474C444.826 105.166 444.352 104.368 444.123 100.641C443.972 98.1868 443.718 94.1701 443.556 91.7155L443.264 87.2525L437.514 87.6006C434.352 87.7925 431.492 87.5047 431.157 86.9624C430.821 86.4202 431.274 84.5747 432.163 82.8609C434.425 78.5029 434.285 76.1899 431.827 77.2811C430.754 77.7587 426.714 78.1971 422.851 78.2563C416.83 78.3489 415.477 77.9885 413.368 75.7291C412.014 74.2798 409.401 72.3294 407.56 71.3956C399.647 67.3811 397.471 62.6838 400.472 56.0976C401.942 52.8698 400.28 49.8751 397.019 49.8751C393.671 49.8751 390.049 44.7996 389.42 39.2298C388.709 32.9069 389.695 32.0634 397.835 32.0399L403.732 32.0232L402.991 26.4367C402.259 20.9193 402.294 20.8356 405.793 19.6161C410.039 18.1355 409.785 16.4262 405.075 14.8062C403.17 14.1501 400.281 12.1719 398.657 10.4112C396.195 7.74238 395.075 7.30948 391.945 7.81714C388.862 8.31811 387.325 7.75689 383.37 4.68636C378.25 0.712082 373.772 -0.900171 371.728 0.492278Z"/>
</mask>
<path fill-rule="evenodd" clip-rule="evenodd" d="M371.728 0.492278C371.043 0.958659 370.104 2.59546 369.638 4.12961C368.355 8.3672 366.866 9.70833 363.443 9.70833C361.081 9.70833 359.737 10.6567 357.91 13.6145C355.13 18.1099 351.618 20.8658 348.667 20.8658C347.538 20.8658 343.05 24.493 338.696 28.927C334.34 33.361 328.472 38.4488 325.655 40.234C322.838 42.018 317.74 45.671 314.327 48.351C310.914 51.0299 307.583 53.2223 306.925 53.2223C305.309 53.2223 304.388 49.363 304.37 42.5168C304.359 38.441 303.777 36.3099 302.314 34.9855C299.659 32.5833 298.442 32.6569 295.986 35.3704C294.876 36.5978 292.908 37.6019 291.613 37.6019C290.318 37.6019 287.385 38.6061 285.096 39.8334C282.805 41.0607 280.428 42.0649 279.813 42.0649C278.082 42.0649 278.486 39.6794 280.615 37.3274C282.491 35.2533 282.368 35.222 275.42 36.0086L268.303 36.8142L265.209 33.024L262.115 29.2338L260.838 32.5811C259.229 36.8019 260.188 41.7837 263.23 45.0227C266.432 48.4302 265.343 50.3872 259.054 52.5306C252.306 54.8301 248.967 54.7543 244.158 52.1936C240.376 50.1797 240.248 50.1842 237.177 52.4558C233.219 55.3813 231.787 54.1428 230.993 47.1081C230.559 43.2554 229.72 41.4646 227.744 40.1693C225.31 38.5749 224.899 38.586 222.998 40.3076C221.023 42.095 220.791 42.0169 218.488 38.7824C216.513 36.0086 215.675 35.5791 213.995 36.4784C212.859 37.0864 211.597 39.0937 211.192 40.9402C210.631 43.4964 209.838 44.2964 207.863 44.2964C205.988 44.2964 204.95 45.2202 204.105 47.6436C203.464 49.4846 202.226 50.9908 201.357 50.9908C200.487 50.9908 198.38 52.0887 196.674 53.431L193.573 55.8711L191.149 52.8329C189.817 51.1616 187.026 48.9334 184.946 47.8824C182.361 46.5759 180.883 44.8632 180.28 42.4744C179.793 40.5519 178.516 38.6686 177.441 38.2892C176.366 37.911 174.937 37.3341 174.264 37.0072C173.591 36.6814 171.674 38.4811 170.003 41.0061C167.351 45.0127 167.117 46.0336 168.163 49.0327C168.821 50.9228 169.232 52.5362 169.077 52.6198C168.92 52.7024 167.411 53.364 165.724 54.0882C163.567 55.0142 162.656 56.2203 162.656 58.1461C162.656 59.6535 162.162 62.1851 161.559 63.7717C160.587 66.3268 159.922 66.6213 155.728 66.3546C151.213 66.0668 150.936 66.233 149.706 69.9585C148.515 73.5702 147.982 73.9261 142.629 74.7026C139.445 75.1634 135.847 76.0728 134.632 76.7221C131.467 78.4169 130.06 82.8621 131.285 87.2994C131.849 89.339 132.024 91.2915 131.676 91.6407C131.328 91.9889 128.349 92.2734 125.055 92.2734C119.7 92.2734 118.655 92.6862 115.162 96.1785C113.014 98.3263 110.772 100.084 110.179 100.084C107.666 100.084 109.406 105.324 113.212 109.22C115.473 111.537 117.104 113.648 116.838 113.911C116.571 114.175 111.332 114.884 105.195 115.485C95.3911 116.446 93.5635 116.341 90.1326 114.626C84.2281 111.676 78.5445 111.109 75.5912 113.177C74.2121 114.143 71.5221 115.251 69.6142 115.638C66.8761 116.193 66.0695 116.987 65.7883 119.405C65.5395 121.54 64.0522 123.387 60.879 125.501C58.3753 127.17 55.6574 129.029 54.8395 129.633C53.7506 130.437 52.5244 129.738 50.2505 127.014L47.1488 123.298L40.4677 125.215C36.7936 126.27 31.0263 128.806 27.6512 130.852C23.8109 133.181 19.2955 134.858 15.5834 135.334C12.321 135.752 9.00836 136.738 8.22288 137.523C7.43629 138.309 5.94009 143.387 4.89687 148.806C3.85254 154.226 2.19901 160.966 1.22162 163.784C-1.20846 170.787 -0.0302377 176.389 4.91025 181.33C11.3492 187.769 12.2395 191.765 7.56571 193.249C6.44998 193.603 4.98836 194.555 4.31557 195.365C2.57167 197.467 6.67089 202.358 10.9665 203.301C12.8688 203.719 15.146 205.336 16.1926 207.013C17.2124 208.648 19.1281 210.989 20.448 212.216C23.0243 214.61 28.767 226.888 28.767 230.002C28.767 232.792 26.6727 236.204 24.959 236.204C21.7981 236.204 20.7091 239.182 22.5601 242.764C25.374 248.204 24.7804 250.372 19.5621 253.715C16.9535 255.386 14.6228 256.887 14.3818 257.051C14.1419 257.215 14.5792 258.115 15.3558 259.05C16.1881 260.053 18.5903 260.751 21.2123 260.751C24.6242 260.751 26.1662 261.399 27.851 263.54C30.3558 266.724 32.3451 267.066 34.3457 264.656C36.5303 262.023 38.4851 262.681 39.815 266.496C41.9316 272.566 41.309 276.652 37.5768 281.18C34.6614 284.717 34.2274 285.989 34.8332 289.219C35.2293 291.33 37.2444 295.272 39.3118 297.98L43.0696 302.905L40.4398 312.231C38.5408 318.962 37.0056 322.2 34.9236 323.862L32.0394 326.166L34.3691 328.274C36.0494 329.795 36.605 331.45 36.3596 334.202C35.9992 338.247 36.6519 338.914 42.7137 340.687C44.7198 341.274 46.7449 343.002 47.768 345.002C48.7063 346.836 50.8921 350.728 52.6237 353.65C56.3101 359.87 55.8783 362.283 51.0773 362.283C48.0994 362.283 47.3842 362.916 45.5655 367.159C44.0001 370.811 42.5586 372.355 39.8273 373.307L36.181 374.579L39.3765 377.915C41.1349 379.749 43.2214 381.251 44.0124 381.251C44.8035 381.251 46.2472 382.465 47.2191 383.948C49.3568 387.211 48.5122 393.35 45.377 397.336C41.425 402.361 42.5564 406.634 50.8028 417.834C56.3536 425.373 59.1753 428.26 61.5317 428.811C66.1688 429.895 71.165 438.161 71.165 444.749C71.165 449.466 71.5912 450.189 77.7769 455.967C82.7509 460.613 84.574 463.164 85.1419 466.268C85.5569 468.537 86.5388 471.273 87.3254 472.348C88.5784 474.062 89.2835 474.137 93.0692 472.954C95.4424 472.213 99.1422 471.708 101.29 471.832C103.438 471.955 106.533 471.665 108.168 471.187C110.909 470.384 111.316 470.712 113.377 475.37C115.537 480.253 115.791 480.434 120.982 480.766C126.902 481.146 126.294 480.287 129.766 493.165C131.354 499.05 131.94 499.843 136.206 501.861C138.787 503.081 142.197 504.8 143.786 505.679C145.845 506.819 147.654 506.996 150.096 506.297C153.076 505.442 153.919 505.732 156.611 508.541C158.31 510.316 160.623 512.06 161.748 512.417C165.372 513.567 167.545 519.568 168.186 530.203L168.792 540.245H173.995C176.857 540.245 179.439 540.496 179.733 540.802C182.117 543.289 187.202 554.983 187.202 557.982C187.202 560.038 187.955 563.856 188.875 566.464C189.796 569.073 190.549 572.573 190.549 574.242C190.549 577.534 192.976 580.254 197.01 581.485C198.646 581.983 199.798 583.422 200.209 585.479C200.563 587.247 202.024 589.462 203.457 590.401C204.889 591.339 207.28 593.421 208.768 595.026C210.805 597.223 212.777 598.034 216.732 598.301C219.623 598.495 222.823 599.348 223.842 600.193C226.494 602.396 237.894 601.97 240.546 599.57C243.32 597.059 244.917 597.223 245.834 600.112C246.379 601.83 245.945 603.027 244.319 604.296C241.566 606.443 241.227 608.101 242.39 613.717C243.177 617.521 242.942 618.329 240.344 620.737C238.501 622.446 237.41 624.638 237.41 626.631C237.41 628.786 236.514 630.392 234.621 631.633C232.953 632.726 231.831 634.517 231.831 636.088C231.831 640.213 229.206 641.615 222.885 640.867L217.327 640.208V643.519C217.327 645.339 216.7 647.841 215.932 649.079C214.213 651.852 216.124 653.442 221.232 653.489C223.833 653.514 225.16 654.416 227.183 657.539C229.607 661.278 230.082 661.51 234.028 660.88C237.764 660.283 238.35 660.501 238.94 662.705C239.309 664.081 239.621 666.212 239.635 667.439C239.664 670.146 247.561 675.007 250.253 673.975C252.57 673.086 260.854 675.761 260.802 677.381C260.779 678.05 260.044 679.852 259.167 681.386C258.29 682.92 257.555 685.228 257.532 686.514C257.511 687.801 256.749 690.346 255.84 692.169C254.621 694.611 254.459 696.435 255.221 699.095C256.125 702.247 255.901 703.016 253.455 705.156C251.915 706.504 249.557 707.879 248.216 708.214C244.706 709.09 244.795 714.989 248.342 716.532C250.073 717.285 250.732 718.317 250.372 719.708C249.586 722.73 250.754 724.938 253.74 726.074C255.241 726.644 256.378 727.994 256.378 729.206C256.378 730.396 257.362 731.591 258.609 731.918C260.1 732.308 260.841 733.44 260.841 735.329C260.841 738.62 262.721 740.203 264.508 738.415C265.191 737.732 267.156 737.173 268.874 737.173C271.667 737.173 271.998 737.566 271.998 740.865C271.998 742.896 271.26 745.531 270.36 746.723C269.459 747.914 268.705 750.52 268.686 752.515C268.659 755.379 269.108 756.141 270.826 756.141C272.024 756.141 273.48 756.993 274.062 758.034C275.052 759.802 275.434 759.787 279.834 757.803L284.546 755.678L286.615 758.235C288.275 760.285 289.354 760.645 292.057 760.052C295.779 759.234 295.733 759.133 295.454 767.394C295.285 772.463 295.314 772.508 298.593 772.026C301.249 771.636 302.056 772.024 302.678 773.986C303.339 776.067 304.008 776.328 307.165 775.736C309.413 775.314 311.177 775.529 311.641 776.28C312.063 776.963 313.573 777.229 314.995 776.872C317.67 776.2 318.987 777.104 323.259 782.536C325.529 785.419 325.65 785.446 327.216 783.379C328.103 782.205 328.846 780.564 328.865 779.73C328.889 778.67 329.747 778.427 331.712 778.92C334.169 779.536 334.61 779.2 335.199 776.251C335.878 772.856 337.892 772.108 344.8 772.688C346.361 772.818 346.752 771.958 346.752 768.401C346.752 764.759 347.141 763.951 348.891 763.951C350.067 763.951 351.214 764.506 351.44 765.182C351.665 765.859 353.841 766.569 356.274 766.76C362.577 767.252 366.957 769.197 367.64 771.806C368.053 773.387 368.838 773.862 370.28 773.404C371.858 772.903 372.723 773.688 374.024 776.801C375.936 781.376 379.81 785.058 382.77 785.114C383.863 785.134 385.047 785.903 385.399 786.824C385.753 787.744 386.993 788.498 388.154 788.498C389.757 788.498 390.266 787.691 390.266 785.15C390.266 783.051 390.84 781.803 391.804 781.803C392.649 781.803 394.068 780.709 394.956 779.372C396.462 777.104 396.739 777.058 399.069 778.69C400.444 779.653 402.481 780.202 403.597 779.91C406.016 779.277 409.674 783.81 408.215 785.632C407.69 786.287 406.911 788.455 406.485 790.45C405.816 793.578 406.012 794.076 407.91 794.076C409.12 794.076 410.418 794.875 410.791 795.851C411.611 797.987 407.503 804.118 405.253 804.118C403.17 804.118 403.217 806.874 405.354 810.136C406.875 812.458 406.875 812.877 405.354 814.138C403.29 815.851 403.2 817.883 405.05 821.015C406.169 822.91 406.165 823.478 405.03 823.889C401.882 825.027 400.379 827.591 401.354 830.155C401.92 831.643 401.878 833.471 401.252 834.59C400.666 835.635 400.482 836.969 400.841 837.55C401.777 839.065 404.58 837.733 404.995 835.575C405.19 834.563 407.575 832.976 410.349 832.012C413.325 830.977 415.505 829.479 415.73 828.314C415.937 827.237 417.373 825.089 418.921 823.542C421.106 821.356 422.439 820.881 424.882 821.418C427.566 822.008 428.082 821.731 428.393 819.529C428.729 817.159 429.237 816.975 434.617 817.261C440.863 817.594 441.922 816.716 438.128 814.347C436.102 813.082 435.883 812.207 436.525 807.933C437.086 804.187 436.843 802.558 435.524 801.239C433.21 798.925 433.318 796.634 435.804 795.302C436.917 794.707 439.262 791.953 441.013 789.182C443.84 784.711 444.709 784.107 448.751 783.81C453.02 783.498 453.328 783.244 453.662 779.749C453.982 776.417 454.307 776.094 456.731 776.702C459.172 777.314 459.442 777.032 459.442 773.871C459.442 770.4 459.492 770.369 463.905 771.074C467.949 771.721 468.368 771.563 468.368 769.387C468.368 768.067 467.489 766.312 466.415 765.488C464.58 764.077 464.6 763.949 466.751 763.34C468.269 762.91 469.531 761.026 470.5 757.742C472.105 752.308 472.091 752.32 475.019 753.886C476.499 754.678 477.433 754.529 478.418 753.34C479.526 752.005 479.136 750.972 476.304 747.746C474.394 745.57 472.831 742.797 472.831 741.583C472.831 740.368 472.25 738.444 471.539 737.306C470.828 736.168 470.583 734.363 470.993 733.294C471.587 731.746 472.531 731.499 475.632 732.081C479.048 732.721 479.525 732.532 479.525 730.529C479.525 728.81 480.247 728.247 482.454 728.247C485.056 728.247 485.314 727.905 484.764 725.179C484.423 723.491 483.851 721.354 483.493 720.429C483.08 719.362 483.764 718.344 485.367 717.64C487.393 716.751 487.913 715.593 487.996 711.781C488.055 709.051 487.463 706.5 486.601 705.786C485.778 705.102 485.104 703.601 485.104 702.449C485.104 699.404 481.857 699.852 478.042 703.422L474.763 706.49L475.51 701.586C476.149 697.387 475.828 696.063 473.276 692.381C471.471 689.775 469.401 688.081 468.025 688.081C466.776 688.081 464.837 687.249 463.714 686.234C461.798 684.501 461.673 684.531 461.673 686.726C461.673 691.776 456.964 690.513 454.826 684.89C454.016 682.759 454.268 681.655 455.984 679.823C457.631 678.066 457.903 676.991 457.077 675.52C455.614 672.918 456.538 671.669 460.58 670.782C464.686 669.879 466.337 667.051 465.425 662.487C464.752 659.12 464.838 659.032 468.503 659.327C472.117 659.617 472.287 659.456 472.619 655.445C472.951 651.437 472.82 651.261 469.516 651.261C465.24 651.261 464.054 648.734 466.438 644.701C467.759 642.463 467.896 641.214 466.996 639.605C466.338 638.432 465.751 635.931 465.69 634.046C465.6 631.276 465.044 630.546 462.789 630.235C458.727 629.674 455.737 626.064 456.572 622.732C457.047 620.844 456.482 618.945 454.751 616.603C452.73 613.87 451.695 613.346 449.427 613.909C447.878 614.293 445.574 615.574 444.308 616.756C439.819 620.943 434.74 617.813 438.78 613.349C439.837 612.181 441.028 608.559 441.425 605.301C442.091 599.849 442.396 599.351 445.275 599.02L448.404 598.662L447.631 590.652C447.205 586.247 446.416 582.472 445.877 582.265C443.789 581.458 441.492 578.392 442.356 577.565C442.855 577.086 444.515 576.527 446.044 576.322C448.268 576.023 449.244 574.777 450.926 570.091C452.659 565.258 453.491 564.233 455.676 564.233C457.134 564.233 458.383 563.857 458.453 563.396C458.524 562.935 458.749 561.121 458.954 559.363C459.16 557.606 460.107 555.306 461.059 554.254C462.032 553.179 462.789 550.333 462.789 547.753C462.789 542.516 464.05 541.332 469.159 541.773C473.794 542.173 480.672 539.76 483.062 536.897C484.678 534.963 484.715 534.432 483.341 532.904C482.47 531.936 481.757 530.609 481.757 529.957C481.757 529.305 480.535 528.465 479.042 528.09C474.771 527.017 474.218 523.15 477.913 520.204L481.005 517.739L477.311 514.208C472.952 510.044 472.535 509.989 467.751 512.946C463.691 515.455 462.142 514.524 463.221 510.225C463.716 508.252 463.233 507.383 461.106 506.413C458.699 505.316 458.501 504.82 459.554 502.511C460.412 500.628 460.415 498.624 459.567 495.553C458.129 490.341 460.028 486.586 464.697 485.415C470.175 484.04 474.008 477.935 475.804 467.721C476.129 465.88 477.388 462.254 478.603 459.662C480.794 454.987 480.619 452.693 478.065 452.622C475.686 452.555 471.715 448.454 471.715 446.065C471.715 444.354 471.009 443.733 469.065 443.733C467.608 443.733 464.911 443.431 463.074 443.064C459.971 442.444 459.681 442.669 459.015 446.217C458.621 448.319 457.597 450.998 456.74 452.171C455.21 454.262 455.136 454.263 452.848 452.192C451.29 450.782 450.516 448.723 450.516 445.992C450.516 443.022 449.753 441.24 447.727 439.478C446.193 438.144 444.937 436.477 444.937 435.774C444.937 434.052 441.495 431.539 439.08 431.495C437.931 431.474 437.127 432.285 437.127 433.468C437.127 436.595 434.915 438.242 432.47 436.934C429.33 435.254 427.907 436.791 428.697 441.005C429.391 444.703 429.377 444.718 424.613 445.062C420.378 445.367 419.873 445.692 420.182 447.917C420.374 449.297 419.997 450.427 419.346 450.427C418.693 450.427 418.16 451.682 418.16 453.216C418.16 454.919 417.525 456.006 416.53 456.006C414.381 456.006 410.43 451.694 409.619 448.462C409.132 446.524 408.44 446.066 406.793 446.589C405.453 447.014 403.758 446.509 402.397 445.278C400.58 443.633 399.797 443.515 398.03 444.619C395.219 446.375 390.329 446.345 389.712 444.569C389.445 443.803 389.617 441.418 390.094 439.27C390.841 435.912 391.369 435.407 393.854 435.669C398.699 436.179 404.232 432.08 405.811 426.811C406.574 424.263 407.844 421.533 408.631 420.745C409.419 419.957 409.818 418.025 409.517 416.452C409.216 414.877 409.582 412.115 410.328 410.311C411.431 407.65 411.387 406.429 410.097 403.844C409.224 402.091 408.837 399.931 409.238 399.044C409.64 398.156 411.013 395.302 412.29 392.701C414.249 388.713 414.423 387.358 413.404 384.037C412.331 380.541 412.474 379.843 414.685 377.782C416.608 375.993 417.013 374.724 416.463 372.22C415.881 369.57 416.123 368.971 417.793 368.939C422.123 368.854 425.406 365.96 425.557 362.093C425.636 360.05 426.071 356.538 426.524 354.29C427.285 350.504 427.093 350.072 423.925 348.433C422.042 347.46 419.473 346.663 418.215 346.663C415.765 346.663 415.311 343.451 416.952 337.737C418.266 333.165 417.205 330.96 414.07 331.747C411.102 332.492 408.217 329.838 408.154 326.301C408.129 324.948 407.222 324.348 405.203 324.348C402.499 324.348 402.342 324.083 403.05 320.722C403.471 318.728 404.078 314.723 404.399 311.821C404.947 306.869 404.733 306.31 400.894 302.689C397.426 299.419 396.986 298.492 398.001 296.595C398.856 294.997 398.853 294.145 397.989 293.612C397.324 293.2 397.067 291.72 397.417 290.323C397.807 288.768 397.41 287.25 396.392 286.404C395.478 285.645 394.729 284.177 394.729 283.143C394.729 282.107 393.992 280.286 393.091 279.095C390.3 275.405 391.163 272.897 397.518 266.235C402.529 260.982 403.655 259.094 403.655 255.95C403.655 253.831 404.42 251.462 405.357 250.686C406.875 249.426 406.853 249.045 405.15 247.164C403.332 245.155 403.403 244.906 406.666 241.925C408.551 240.204 410.43 237.261 410.843 235.384C411.254 233.508 412.522 231.131 413.658 230.102C414.795 229.075 416.32 226.795 417.047 225.039C417.824 223.164 419.709 221.378 421.612 220.714C423.395 220.093 424.854 218.818 424.854 217.882C424.854 215.12 435.082 205.621 438.232 205.458C439.772 205.377 442.4 205.234 444.072 205.138C446.215 205.015 447.615 203.991 448.817 201.667C450.027 199.325 451.631 198.161 454.349 197.651C458.253 196.919 462.787 191.8 464.426 186.275C465.32 183.262 466.894 183.095 469.778 185.705C471.833 187.565 472.053 187.495 475.165 184.013C477.384 181.53 478.41 179.197 478.41 176.63C478.41 174.567 479.158 171.087 480.073 168.898C481.843 164.664 481.693 164.373 477.206 163.304C475.624 162.927 473.751 161.351 473.046 159.803C472.34 158.254 471.017 156.987 470.105 156.987C467.636 156.987 466.138 153.337 466.128 147.297C466.123 144.342 465.594 138.66 464.953 134.672C463.946 128.42 463.145 126.764 459.15 122.677C456.6 120.069 453.65 117.935 452.595 117.935C449.965 117.935 446.902 114.661 447.668 112.667C449.738 107.269 449.606 105.844 446.997 105.474C444.826 105.166 444.352 104.368 444.123 100.641C443.972 98.1868 443.718 94.1701 443.556 91.7155L443.264 87.2525L437.514 87.6006C434.352 87.7925 431.492 87.5047 431.157 86.9624C430.821 86.4202 431.274 84.5747 432.163 82.8609C434.425 78.5029 434.285 76.1899 431.827 77.2811C430.754 77.7587 426.714 78.1971 422.851 78.2563C416.83 78.3489 415.477 77.9885 413.368 75.7291C412.014 74.2798 409.401 72.3294 407.56 71.3956C399.647 67.3811 397.471 62.6838 400.472 56.0976C401.942 52.8698 400.28 49.8751 397.019 49.8751C393.671 49.8751 390.049 44.7996 389.42 39.2298C388.709 32.9069 389.695 32.0634 397.835 32.0399L403.732 32.0232L402.991 26.4367C402.259 20.9193 402.294 20.8356 405.793 19.6161C410.039 18.1355 409.785 16.4262 405.075 14.8062C403.17 14.1501 400.281 12.1719 398.657 10.4112C396.195 7.74238 395.075 7.30948 391.945 7.81714C388.862 8.31811 387.325 7.75689 383.37 4.68636C378.25 0.712082 373.772 -0.900171 371.728 0.492278Z" fill="url(#paint0_linear)" stroke="#F0F4F8" stroke-width="2" mask="url(#path-1-inside-1)"/>
<defs>
<linearGradient id="paint0_linear" x1="105.255" y1="80.3097" x2="451.61" y2="899.24" gradientUnits="userSpaceOnUse">
<stop stop-color="#F0F0F0"/>
<stop offset="0.0001" stop-color="#F0F4F8"/>
<stop offset="1" stop-color="#F0F4F8"/>
</linearGradient>
</defs>
</svg>
