<svg width="175" height="119" viewBox="0 0 175 119" fill="none" xmlns="http://www.w3.org/2000/svg">
<path d="M76.1736 56C61.7414 56 50 64.924 50 75.893V107.731V108.847V118.468C50 119.026 50.9785 119.212 51.3454 118.7C53.0577 116.051 55.6872 113.82 58.9284 111.914C60.8853 110.752 65.1048 108.8 72.5655 108.847C74.0944 108.847 123.812 108.847 123.812 108.847C141.057 108.847 155 98.2495 155 85.1424V56H76.1736Z" fill="url(#paint0_linear)"/>
<path d="M60.809 0C71.9423 0 81 6.79922 81 15.1566V39.4143V40.2642V47.5946C81 48.0195 80.2452 48.1612 79.9621 47.7716C78.6412 45.7531 76.6127 44.0533 74.1124 42.6014C72.6028 41.7161 69.3477 40.2287 63.5923 40.2642C62.4129 40.2642 24.0594 40.2642 24.0594 40.2642C10.756 40.2642 0 32.1901 0 22.2037V0H60.809Z" fill="url(#paint1_linear)"/>
<path d="M72.901 25C54.2079 25 39 36.6153 39 50.8925V92.3327V93.7846V106.307C39 107.033 40.2673 107.275 40.7426 106.61C42.9604 103.162 46.3663 100.258 50.5644 97.7774C53.099 96.265 58.5644 93.7241 68.2277 93.7846C70.2079 93.7846 134.604 93.7846 134.604 93.7846C156.941 93.7846 175 79.9914 175 62.9313V25H72.901Z" fill="url(#paint2_linear)"/>
<defs>
<linearGradient id="paint0_linear" x1="5.01379" y1="88.1094" x2="189.383" y2="97.1094" gradientUnits="userSpaceOnUse">
<stop offset="0.0438642" stop-color="#2BAFC2"/>
<stop offset="1" stop-color="white" stop-opacity="0"/>
</linearGradient>
<linearGradient id="paint1_linear" x1="96.3531" y1="41.8147" x2="-73.9944" y2="6.17382" gradientUnits="userSpaceOnUse">
<stop offset="0.0438642" stop-color="#2BAFC2"/>
<stop offset="1" stop-color="white" stop-opacity="0"/>
</linearGradient>
<linearGradient id="paint2_linear" x1="-19.2679" y1="66.7932" x2="268.611" y2="65.819" gradientUnits="userSpaceOnUse">
<stop offset="0.0438642" stop-color="#2BAFC2"/>
<stop offset="1" stop-color="white" stop-opacity="0"/>
</linearGradient>
</defs>
</svg>
