<svg width="149" height="142" viewBox="0 0 149 142" fill="none" xmlns="http://www.w3.org/2000/svg">
<path d="M74.5357 29.0222C76.307 28.1505 77.7394 18.9467 85.3019 13.9006C93.3285 8.54443 103.548 10.4885 108.467 7.76367C107.278 12.377 102.289 23.8192 93.6516 27.386C84.4041 31.2055 74.5357 29.0222 74.5357 29.0222Z" fill="url(#paint0_linear)"/>
<path d="M74.4993 141.283V68.806C88.0447 45.6499 113.442 35.0652 148.999 40.4611V118.679C116.405 114.067 88.8913 121.249 74.4993 141.283Z" fill="url(#paint1_linear)"/>
<path d="M74.4988 141.283V69.3047C87.9711 41.8036 111.231 28.9192 138.492 30.9169V110.848C111.437 107.325 86.2871 117.633 74.4988 141.283Z" fill="url(#paint2_linear)"/>
<path d="M74.4997 141.283V69.2377C81.279 42.2818 104.583 24.213 130.852 24.2118V104.217C105.43 104.217 80.8553 116.815 74.4997 141.283Z" fill="url(#paint3_linear)"/>
<path d="M74.4998 141.283V68.806C60.9543 45.6499 35.5567 35.0652 0 40.4611V118.679C32.5936 114.067 60.1078 121.249 74.4998 141.283Z" fill="url(#paint4_linear)"/>
<path d="M74.4973 141.283V69.3047C61.025 41.8036 37.7655 28.9192 10.5039 30.9169V110.848C37.5593 107.325 62.709 117.633 74.4973 141.283Z" fill="url(#paint5_linear)"/>
<path d="M74.5008 141.283V69.2377C67.7215 42.2818 44.4179 24.213 18.1484 24.2118V104.217C43.5705 104.217 68.1452 116.815 74.5008 141.283Z" fill="url(#paint6_linear)"/>
<path d="M44.5136 91.5145C47.9447 89.826 50.7193 71.9975 65.3684 62.223C80.9164 51.8478 100.712 55.6135 110.24 50.3355C107.937 59.2717 98.2742 81.4359 81.5423 88.3451C63.6293 95.7435 44.5136 91.5145 44.5136 91.5145Z" fill="url(#paint7_linear)"/>
<path d="M46.0933 14.1437C47.1889 13.6046 48.0748 7.91182 52.7524 4.79073C57.717 1.47787 64.0378 2.68028 67.0803 0.994959C66.3448 3.84838 63.2595 10.9256 57.9168 13.1317C52.1971 15.4941 46.0933 14.1437 46.0933 14.1437Z" fill="url(#paint8_linear)"/>
<defs>
<linearGradient id="paint0_linear" x1="59.1031" y1="20.7749" x2="120.596" y2="20.6761" gradientUnits="userSpaceOnUse">
<stop offset="0.0438642" stop-color="#2BAFC2"/>
<stop offset="1" stop-color="white" stop-opacity="0"/>
</linearGradient>
<linearGradient id="paint1_linear" x1="180.918" y1="91.1688" x2="49.8521" y2="93.967" gradientUnits="userSpaceOnUse">
<stop offset="0.0438642" stop-color="#2BAFC2"/>
<stop offset="1" stop-color="white" stop-opacity="0"/>
</linearGradient>
<linearGradient id="paint2_linear" x1="165.91" y1="87.0688" x2="53.3086" y2="88.9776" gradientUnits="userSpaceOnUse">
<stop offset="0.0438642" stop-color="#2BAFC2"/>
<stop offset="1" stop-color="white" stop-opacity="0"/>
</linearGradient>
<linearGradient id="paint3_linear" x1="154.996" y1="83.8798" x2="55.8308" y2="85.2778" gradientUnits="userSpaceOnUse">
<stop offset="0.0438642" stop-color="#2BAFC2"/>
<stop offset="1" stop-color="white" stop-opacity="0"/>
</linearGradient>
<linearGradient id="paint4_linear" x1="-31.9187" y1="91.1688" x2="99.1469" y2="93.967" gradientUnits="userSpaceOnUse">
<stop offset="0.0438642" stop-color="#2BAFC2"/>
<stop offset="1" stop-color="white" stop-opacity="0"/>
</linearGradient>
<linearGradient id="paint5_linear" x1="-16.9134" y1="87.0688" x2="95.6875" y2="88.9776" gradientUnits="userSpaceOnUse">
<stop offset="0.0438642" stop-color="#2BAFC2"/>
<stop offset="1" stop-color="white" stop-opacity="0"/>
</linearGradient>
<linearGradient id="paint6_linear" x1="-5.99518" y1="83.8798" x2="93.1697" y2="85.2778" gradientUnits="userSpaceOnUse">
<stop offset="0.0438642" stop-color="#2BAFC2"/>
<stop offset="1" stop-color="white" stop-opacity="0"/>
</linearGradient>
<linearGradient id="paint7_linear" x1="14.6199" y1="75.539" x2="133.735" y2="75.3476" gradientUnits="userSpaceOnUse">
<stop offset="0.0438642" stop-color="#2BAFC2"/>
<stop offset="1" stop-color="white" stop-opacity="0"/>
</linearGradient>
<linearGradient id="paint8_linear" x1="36.548" y1="9.04264" x2="74.5822" y2="8.9815" gradientUnits="userSpaceOnUse">
<stop offset="0.0438642" stop-color="#2BAFC2"/>
<stop offset="1" stop-color="white" stop-opacity="0"/>
</linearGradient>
</defs>
</svg>
